<?xml version="1.0" encoding="UTF-8"?>
<svg xmlns="http://www.w3.org/2000/svg" width="1280" height="720" viewBox="0 0 1280 720">
  <rect width="1280" height="720" fill="#0F0F10" />
  <rect x="0" y="0" width="1280" height="64" fill="#2C2C2E" />
  <rect x="0" y="64" width="220" height="656" fill="#1E1E1E" />
  <rect x="220" y="64" width="1060" height="656" fill="#1E1E1E" />
  <text x="32" y="40" font-family="SF Pro Display, Inter, sans-serif" font-size="22" fill="#F2F2F7">IRIX IDE – Remote Hosts</text>
  <rect x="32" y="120" width="188" height="40" rx="12" fill="#2C2C2E" />
  <text x="48" y="146" font-family="SF Pro Text, Inter, sans-serif" font-size="16" fill="#F2F2F7">Remote Hosts</text>
  <text x="48" y="110" font-family="SF Pro Text, Inter, sans-serif" font-size="14" fill="#8E8E93">Nav</text>
  <text x="48" y="194" font-family="SF Pro Text, Inter, sans-serif" font-size="16" fill="#8E8E93">Dashboard</text>
  <text x="48" y="242" font-family="SF Pro Text, Inter, sans-serif" font-size="16" fill="#8E8E93">Editor</text>
  <text x="48" y="290" font-family="SF Pro Text, Inter, sans-serif" font-size="16" fill="#8E8E93">Build &amp; Logs</text>
  <text x="48" y="338" font-family="SF Pro Text, Inter, sans-serif" font-size="16" fill="#8E8E93">Debugger</text>
  <text x="48" y="386" font-family="SF Pro Text, Inter, sans-serif" font-size="16" fill="#8E8E93">Settings</text>
  <text x="260" y="116" font-family="SF Pro Display, Inter, sans-serif" font-size="24" fill="#F2F2F7">Host Overview</text>
  <rect x="260" y="140" width="980" height="64" rx="16" fill="#2C2C2E" stroke="#4C6EF5" stroke-width="1" />
  <text x="284" y="180" font-family="SF Pro Text, Inter, sans-serif" font-size="16" fill="#F2F2F7">octane (Primary)</text>
  <text x="520" y="180" font-family="SF Pro Text, Inter, sans-serif" font-size="16" fill="#8E8E93">Status: Connected</text>
  <text x="720" y="180" font-family="SF Pro Text, Inter, sans-serif" font-size="16" fill="#8E8E93">Last Sync: 1m ago</text>
  <rect x="260" y="220" width="980" height="48" rx="12" fill="#2C2C2E" />
  <text x="284" y="250" font-family="SF Pro Text, Inter, sans-serif" font-size="14" fill="#F2F2F7">Add Host</text>
  <rect x="260" y="288" width="980" height="340" rx="16" fill="#2C2C2E" />
  <text x="284" y="322" font-family="SF Pro Text, Inter, sans-serif" font-size="14" fill="#8E8E93">Host</text>
  <text x="544" y="322" font-family="SF Pro Text, Inter, sans-serif" font-size="14" fill="#8E8E93">Role</text>
  <text x="724" y="322" font-family="SF Pro Text, Inter, sans-serif" font-size="14" fill="#8E8E93">Status</text>
  <text x="904" y="322" font-family="SF Pro Text, Inter, sans-serif" font-size="14" fill="#8E8E93">Actions</text>
  <rect x="260" y="344" width="980" height="54" fill="#2E2E30" />
  <text x="284" y="378" font-family="SF Pro Text, Inter, sans-serif" font-size="16" fill="#F2F2F7">octane</text>
  <text x="544" y="378" font-family="SF Pro Text, Inter, sans-serif" font-size="16" fill="#D1D1D6">Primary build</text>
  <text x="724" y="378" font-family="SF Pro Text, Inter, sans-serif" font-size="16" fill="#34C759">Connected</text>
  <rect x="904" y="354" width="96" height="32" rx="10" fill="#4C6EF5" />
  <text x="924" y="374" font-family="SF Pro Text, Inter, sans-serif" font-size="14" fill="#F2F2F7">Connect</text>
  <rect x="260" y="398" width="980" height="54" fill="#2C2C2E" />
  <text x="284" y="432" font-family="SF Pro Text, Inter, sans-serif" font-size="16" fill="#F2F2F7">indigo2</text>
  <text x="544" y="432" font-family="SF Pro Text, Inter, sans-serif" font-size="16" fill="#D1D1D6">Debug staging</text>
  <text x="724" y="432" font-family="SF Pro Text, Inter, sans-serif" font-size="16" fill="#FFD60A">Degraded</text>
  <rect x="904" y="408" width="96" height="32" rx="10" fill="#2C2C2E" stroke="#4C6EF5" stroke-width="1" />
  <text x="918" y="428" font-family="SF Pro Text, Inter, sans-serif" font-size="14" fill="#F2F2F7">Retry</text>
  <rect x="260" y="452" width="980" height="54" fill="#2C2C2E" />
  <text x="284" y="486" font-family="SF Pro Text, Inter, sans-serif" font-size="16" fill="#F2F2F7">onyx2</text>
  <text x="544" y="486" font-family="SF Pro Text, Inter, sans-serif" font-size="16" fill="#D1D1D6">Perf lab</text>
  <text x="724" y="486" font-family="SF Pro Text, Inter, sans-serif" font-size="16" fill="#FF3B30">Offline</text>
  <rect x="904" y="462" width="96" height="32" rx="10" fill="#2C2C2E" stroke="#FF3B30" stroke-width="1" />
  <text x="916" y="482" font-family="SF Pro Text, Inter, sans-serif" font-size="14" fill="#FF3B30">View Logs</text>
  <rect x="260" y="540" width="980" height="120" rx="16" fill="#2C2C2E" />
  <text x="284" y="578" font-family="SF Pro Text, Inter, sans-serif" font-size="16" fill="#F2F2F7">Host detail</text>
  <text x="284" y="604" font-family="SF Pro Text, Inter, sans-serif" font-size="14" fill="#8E8E93">✔ Auto-sync enabled • ✔ Remote logs streaming • ✖️ Debug tunnels pending</text>
</svg>
